<?xml version="1.0" standalone="no"?>
<!DOCTYPE svg PUBLIC "-//W3C//DTD SVG 20010904//EN"
 "http://www.w3.org/TR/2001/REC-SVG-20010904/DTD/svg10.dtd">
<svg version="1.0" xmlns="http://www.w3.org/2000/svg"
 width="85.000000pt" height="85.000000pt" viewBox="0 0 85.000000 85.000000"
 preserveAspectRatio="xMidYMid meet">
<metadata>
Created by potrace 1.11, written by Peter Selinger 2001-2013
</metadata>
<g transform="translate(0.000000,85.000000) scale(0.100000,-0.100000)"
fill="#000000" stroke="none">
<path d="M0 425 l0 -425 425 0 425 0 0 425 0 425 -425 0 -425 0 0 -425z m360
230 c38 -20 38 -34 0 -70 -22 -21 -40 -29 -67 -29 -33 -1 -38 -4 -41 -27 -2
-15 5 -32 18 -44 20 -18 21 -18 118 77 104 103 133 117 208 103 l37 -6 -114
-116 c-63 -64 -140 -141 -172 -171 l-58 -56 -60 60 c-92 89 -109 144 -66 218
39 68 129 96 197 61z m344 -91 c10 -26 6 -78 -8 -103 -7 -14 -71 -82 -142
-153 l-128 -128 -38 37 -38 37 66 67 c61 61 65 68 53 88 -12 19 -10 24 19 53
29 29 34 31 53 20 19 -12 26 -8 79 42 62 60 74 65 84 40z"/>
</g>
</svg>
